<mxfile host="app.diagrams.net" agent="Mozilla/5.0 (Windows NT 10.0; Win64; x64) AppleWebKit/537.36 (KHTML, like Gecko) Chrome/128.0.0.0 Safari/537.36" version="24.7.14">
  <diagram name="Page-1" id="osRGP6wKcZyhPvzCnX1U">
    <mxGraphModel dx="3056" dy="1135" grid="1" gridSize="10" guides="1" tooltips="1" connect="1" arrows="1" fold="1" page="1" pageScale="1" pageWidth="850" pageHeight="1100" math="0" shadow="0">
      <root>
        <mxCell id="0" />
        <mxCell id="1" parent="0" />
        <mxCell id="YslABU1LW5GmAKorAFck-17" value="" style="rounded=0;whiteSpace=wrap;html=1;fillColor=#ffff88;strokeColor=#36393d;" parent="1" vertex="1">
          <mxGeometry x="160" y="70" width="300" height="180" as="geometry" />
        </mxCell>
        <mxCell id="YslABU1LW5GmAKorAFck-2" value="" style="rounded=0;whiteSpace=wrap;html=1;fillColor=#dae8fc;strokeColor=#6c8ebf;" parent="1" vertex="1">
          <mxGeometry x="165" y="80" width="50" height="160" as="geometry" />
        </mxCell>
        <mxCell id="YslABU1LW5GmAKorAFck-3" value="&lt;font style=&quot;font-size: 24px;&quot;&gt;Conv1D&lt;/font&gt;" style="text;html=1;align=center;verticalAlign=middle;whiteSpace=wrap;rounded=0;rotation=-90;" parent="1" vertex="1">
          <mxGeometry x="160" y="145" width="60" height="30" as="geometry" />
        </mxCell>
        <mxCell id="YslABU1LW5GmAKorAFck-11" value="" style="rounded=0;whiteSpace=wrap;html=1;fillColor=#d5e8d4;strokeColor=#82b366;" parent="1" vertex="1">
          <mxGeometry x="225" y="80" width="50" height="160" as="geometry" />
        </mxCell>
        <mxCell id="YslABU1LW5GmAKorAFck-4" value="&lt;font style=&quot;font-size: 24px;&quot;&gt;MaxPool1D&lt;/font&gt;" style="text;html=1;align=center;verticalAlign=middle;whiteSpace=wrap;rounded=0;rotation=-90;" parent="1" vertex="1">
          <mxGeometry x="220" y="145" width="60" height="30" as="geometry" />
        </mxCell>
        <mxCell id="YslABU1LW5GmAKorAFck-14" value="" style="rounded=0;whiteSpace=wrap;html=1;fillColor=#f8cecc;strokeColor=#b85450;" parent="1" vertex="1">
          <mxGeometry x="345" y="80" width="50" height="160" as="geometry" />
        </mxCell>
        <mxCell id="YslABU1LW5GmAKorAFck-6" value="&lt;font style=&quot;font-size: 24px;&quot;&gt;BatchNorm1D&lt;/font&gt;" style="text;html=1;align=center;verticalAlign=middle;whiteSpace=wrap;rounded=0;rotation=-90;" parent="1" vertex="1">
          <mxGeometry x="320" y="145" width="100" height="30" as="geometry" />
        </mxCell>
        <mxCell id="YslABU1LW5GmAKorAFck-13" value="" style="rounded=0;whiteSpace=wrap;html=1;fillColor=#dae8fc;strokeColor=#6c8ebf;" parent="1" vertex="1">
          <mxGeometry x="285" y="80" width="50" height="160" as="geometry" />
        </mxCell>
        <mxCell id="YslABU1LW5GmAKorAFck-15" value="" style="rounded=0;whiteSpace=wrap;html=1;fillColor=#e1d5e7;strokeColor=#9673a6;" parent="1" vertex="1">
          <mxGeometry x="405" y="80" width="50" height="160" as="geometry" />
        </mxCell>
        <mxCell id="YslABU1LW5GmAKorAFck-7" value="&lt;font style=&quot;font-size: 24px;&quot;&gt;ReLU&lt;/font&gt;" style="text;html=1;align=center;verticalAlign=middle;whiteSpace=wrap;rounded=0;rotation=-90;" parent="1" vertex="1">
          <mxGeometry x="380" y="145" width="100" height="30" as="geometry" />
        </mxCell>
        <mxCell id="YslABU1LW5GmAKorAFck-16" value="&lt;font style=&quot;font-size: 24px;&quot;&gt;Conv1D&lt;/font&gt;" style="text;html=1;align=center;verticalAlign=middle;whiteSpace=wrap;rounded=0;rotation=-90;" parent="1" vertex="1">
          <mxGeometry x="280" y="145" width="60" height="30" as="geometry" />
        </mxCell>
        <mxCell id="YslABU1LW5GmAKorAFck-19" value="&lt;font style=&quot;font-size: 24px;&quot;&gt;1D Block&lt;/font&gt;" style="text;html=1;align=center;verticalAlign=middle;whiteSpace=wrap;rounded=0;" parent="1" vertex="1">
          <mxGeometry x="245" y="30" width="130" height="30" as="geometry" />
        </mxCell>
        <mxCell id="YslABU1LW5GmAKorAFck-20" value="" style="rounded=0;whiteSpace=wrap;html=1;fillColor=#ffff88;strokeColor=#36393d;" parent="1" vertex="1">
          <mxGeometry x="91" y="499" width="50" height="160" as="geometry" />
        </mxCell>
        <mxCell id="YslABU1LW5GmAKorAFck-21" value="&lt;font style=&quot;font-size: 24px;&quot;&gt;1D Block&lt;/font&gt;" style="text;html=1;align=center;verticalAlign=middle;whiteSpace=wrap;rounded=0;rotation=-90;" parent="1" vertex="1">
          <mxGeometry x="58.5" y="564" width="115" height="30" as="geometry" />
        </mxCell>
        <mxCell id="YslABU1LW5GmAKorAFck-37" value="Input 5000" style="rounded=0;whiteSpace=wrap;html=1;" parent="1" vertex="1">
          <mxGeometry x="-250" y="480" width="260" height="21" as="geometry" />
        </mxCell>
        <mxCell id="YslABU1LW5GmAKorAFck-39" value="" style="shape=flexArrow;endArrow=classic;html=1;rounded=0;" parent="1" edge="1">
          <mxGeometry width="50" height="50" relative="1" as="geometry">
            <mxPoint x="21" y="579" as="sourcePoint" />
            <mxPoint x="71" y="579" as="targetPoint" />
          </mxGeometry>
        </mxCell>
        <mxCell id="YslABU1LW5GmAKorAFck-42" value="" style="rounded=0;whiteSpace=wrap;html=1;fillColor=#ffff88;strokeColor=#36393d;" parent="1" vertex="1">
          <mxGeometry x="153.5" y="499" width="50" height="160" as="geometry" />
        </mxCell>
        <mxCell id="YslABU1LW5GmAKorAFck-43" value="&lt;font style=&quot;font-size: 24px;&quot;&gt;1D Block&lt;/font&gt;" style="text;html=1;align=center;verticalAlign=middle;whiteSpace=wrap;rounded=0;rotation=-90;" parent="1" vertex="1">
          <mxGeometry x="121" y="564" width="115" height="30" as="geometry" />
        </mxCell>
        <mxCell id="YslABU1LW5GmAKorAFck-44" value="" style="rounded=0;whiteSpace=wrap;html=1;fillColor=#ffff88;strokeColor=#36393d;" parent="1" vertex="1">
          <mxGeometry x="213.5" y="499" width="50" height="160" as="geometry" />
        </mxCell>
        <mxCell id="YslABU1LW5GmAKorAFck-45" value="&lt;font style=&quot;font-size: 24px;&quot;&gt;1D Block&lt;/font&gt;" style="text;html=1;align=center;verticalAlign=middle;whiteSpace=wrap;rounded=0;rotation=-90;" parent="1" vertex="1">
          <mxGeometry x="181" y="564" width="115" height="30" as="geometry" />
        </mxCell>
        <mxCell id="YslABU1LW5GmAKorAFck-46" value="" style="rounded=0;whiteSpace=wrap;html=1;fillColor=#ffff88;strokeColor=#36393d;" parent="1" vertex="1">
          <mxGeometry x="278.5" y="499" width="50" height="160" as="geometry" />
        </mxCell>
        <mxCell id="YslABU1LW5GmAKorAFck-47" value="&lt;font style=&quot;font-size: 24px;&quot;&gt;1D Block&lt;/font&gt;" style="text;html=1;align=center;verticalAlign=middle;whiteSpace=wrap;rounded=0;rotation=-90;" parent="1" vertex="1">
          <mxGeometry x="246" y="564" width="115" height="30" as="geometry" />
        </mxCell>
        <mxCell id="YslABU1LW5GmAKorAFck-48" value="" style="rounded=0;whiteSpace=wrap;html=1;fillColor=#ffff88;strokeColor=#36393d;" parent="1" vertex="1">
          <mxGeometry x="338.5" y="499" width="50" height="160" as="geometry" />
        </mxCell>
        <mxCell id="YslABU1LW5GmAKorAFck-49" value="&lt;font style=&quot;font-size: 24px;&quot;&gt;1D Block&lt;/font&gt;" style="text;html=1;align=center;verticalAlign=middle;whiteSpace=wrap;rounded=0;rotation=-90;" parent="1" vertex="1">
          <mxGeometry x="306" y="564" width="115" height="30" as="geometry" />
        </mxCell>
        <mxCell id="YslABU1LW5GmAKorAFck-54" value="" style="rounded=0;whiteSpace=wrap;html=1;fillColor=#ffff88;strokeColor=#36393d;" parent="1" vertex="1">
          <mxGeometry x="403.5" y="499" width="50" height="160" as="geometry" />
        </mxCell>
        <mxCell id="YslABU1LW5GmAKorAFck-55" value="&lt;font style=&quot;font-size: 24px;&quot;&gt;1D Block&lt;/font&gt;" style="text;html=1;align=center;verticalAlign=middle;whiteSpace=wrap;rounded=0;rotation=-90;" parent="1" vertex="1">
          <mxGeometry x="371" y="564" width="115" height="30" as="geometry" />
        </mxCell>
        <mxCell id="YslABU1LW5GmAKorAFck-58" value="" style="rounded=0;whiteSpace=wrap;html=1;fillColor=#dae8fc;strokeColor=#6c8ebf;" parent="1" vertex="1">
          <mxGeometry x="466" y="499" width="50" height="160" as="geometry" />
        </mxCell>
        <mxCell id="YslABU1LW5GmAKorAFck-59" value="&lt;font style=&quot;font-size: 24px;&quot;&gt;Conv1D&lt;/font&gt;" style="text;html=1;align=center;verticalAlign=middle;whiteSpace=wrap;rounded=0;rotation=-90;" parent="1" vertex="1">
          <mxGeometry x="461" y="564" width="60" height="30" as="geometry" />
        </mxCell>
        <mxCell id="YslABU1LW5GmAKorAFck-60" value="" style="rounded=0;whiteSpace=wrap;html=1;fillColor=#f8cecc;strokeColor=#b85450;" parent="1" vertex="1">
          <mxGeometry x="526" y="499" width="50" height="160" as="geometry" />
        </mxCell>
        <mxCell id="YslABU1LW5GmAKorAFck-61" value="&lt;font style=&quot;font-size: 24px;&quot;&gt;BatchNorm1D&lt;/font&gt;" style="text;html=1;align=center;verticalAlign=middle;whiteSpace=wrap;rounded=0;rotation=-90;" parent="1" vertex="1">
          <mxGeometry x="501" y="564" width="100" height="30" as="geometry" />
        </mxCell>
        <mxCell id="YslABU1LW5GmAKorAFck-62" value="" style="rounded=0;whiteSpace=wrap;html=1;fillColor=#dae8fc;strokeColor=#6c8ebf;" parent="1" vertex="1">
          <mxGeometry x="586" y="499" width="50" height="160" as="geometry" />
        </mxCell>
        <mxCell id="YslABU1LW5GmAKorAFck-63" value="&lt;font style=&quot;font-size: 24px;&quot;&gt;Conv1D&lt;/font&gt;" style="text;html=1;align=center;verticalAlign=middle;whiteSpace=wrap;rounded=0;rotation=-90;" parent="1" vertex="1">
          <mxGeometry x="581" y="564" width="60" height="30" as="geometry" />
        </mxCell>
        <mxCell id="YslABU1LW5GmAKorAFck-64" value="" style="rounded=0;whiteSpace=wrap;html=1;fillColor=#f8cecc;strokeColor=#b85450;" parent="1" vertex="1">
          <mxGeometry x="646" y="499" width="50" height="160" as="geometry" />
        </mxCell>
        <mxCell id="YslABU1LW5GmAKorAFck-65" value="&lt;font style=&quot;font-size: 24px;&quot;&gt;BatchNorm1D&lt;/font&gt;" style="text;html=1;align=center;verticalAlign=middle;whiteSpace=wrap;rounded=0;rotation=-90;" parent="1" vertex="1">
          <mxGeometry x="621" y="564" width="100" height="30" as="geometry" />
        </mxCell>
        <mxCell id="YslABU1LW5GmAKorAFck-66" value="" style="rounded=0;whiteSpace=wrap;html=1;fillColor=#fad7ac;strokeColor=#b46504;" parent="1" vertex="1">
          <mxGeometry x="711" y="499" width="50" height="160" as="geometry" />
        </mxCell>
        <mxCell id="YslABU1LW5GmAKorAFck-67" value="" style="rounded=0;whiteSpace=wrap;html=1;fillColor=#ffe6cc;strokeColor=#d79b00;" parent="1" vertex="1">
          <mxGeometry x="771" y="499" width="50" height="160" as="geometry" />
        </mxCell>
        <mxCell id="YslABU1LW5GmAKorAFck-69" value="" style="rounded=0;whiteSpace=wrap;html=1;fillColor=#d0cee2;strokeColor=#56517e;" parent="1" vertex="1">
          <mxGeometry x="891" y="499" width="50" height="160" as="geometry" />
        </mxCell>
        <mxCell id="YslABU1LW5GmAKorAFck-70" value="" style="rounded=0;whiteSpace=wrap;html=1;fillColor=#d5e8d4;strokeColor=#82b366;" parent="1" vertex="1">
          <mxGeometry x="951" y="499" width="50" height="160" as="geometry" />
        </mxCell>
        <mxCell id="YslABU1LW5GmAKorAFck-74" value="" style="rounded=0;whiteSpace=wrap;html=1;fillColor=#d5e8d4;strokeColor=#82b366;" parent="1" vertex="1">
          <mxGeometry x="1191" y="499" width="50" height="160" as="geometry" />
        </mxCell>
        <mxCell id="YslABU1LW5GmAKorAFck-75" value="&lt;font style=&quot;font-size: 14px;&quot;&gt;AdaptiveConcatPool1D&lt;/font&gt;" style="text;html=1;align=center;verticalAlign=middle;whiteSpace=wrap;rounded=0;rotation=-90;" parent="1" vertex="1">
          <mxGeometry x="686" y="564" width="100" height="30" as="geometry" />
        </mxCell>
        <mxCell id="YslABU1LW5GmAKorAFck-76" value="&lt;font style=&quot;font-size: 24px;&quot;&gt;Flatten&lt;/font&gt;" style="text;html=1;align=center;verticalAlign=middle;whiteSpace=wrap;rounded=0;rotation=-90;" parent="1" vertex="1">
          <mxGeometry x="746" y="564" width="100" height="30" as="geometry" />
        </mxCell>
        <mxCell id="YslABU1LW5GmAKorAFck-78" value="&lt;font style=&quot;font-size: 24px;&quot;&gt;Dropout&lt;/font&gt;" style="text;html=1;align=center;verticalAlign=middle;whiteSpace=wrap;rounded=0;rotation=-90;" parent="1" vertex="1">
          <mxGeometry x="866" y="559" width="100" height="30" as="geometry" />
        </mxCell>
        <mxCell id="YslABU1LW5GmAKorAFck-79" value="&lt;font style=&quot;font-size: 24px;&quot;&gt;Linear&lt;/font&gt;" style="text;html=1;align=center;verticalAlign=middle;whiteSpace=wrap;rounded=0;rotation=-90;" parent="1" vertex="1">
          <mxGeometry x="926" y="564" width="100" height="30" as="geometry" />
        </mxCell>
        <mxCell id="YslABU1LW5GmAKorAFck-83" value="&lt;font style=&quot;font-size: 24px;&quot;&gt;Linear&lt;/font&gt;" style="text;html=1;align=center;verticalAlign=middle;whiteSpace=wrap;rounded=0;rotation=-90;" parent="1" vertex="1">
          <mxGeometry x="1161" y="564" width="100" height="30" as="geometry" />
        </mxCell>
        <mxCell id="YslABU1LW5GmAKorAFck-84" value="" style="rounded=0;whiteSpace=wrap;html=1;fillColor=#f8cecc;strokeColor=#b85450;" parent="1" vertex="1">
          <mxGeometry x="832" y="499" width="50" height="160" as="geometry" />
        </mxCell>
        <mxCell id="YslABU1LW5GmAKorAFck-85" value="&lt;font style=&quot;font-size: 24px;&quot;&gt;BatchNorm1D&lt;/font&gt;" style="text;html=1;align=center;verticalAlign=middle;whiteSpace=wrap;rounded=0;rotation=-90;" parent="1" vertex="1">
          <mxGeometry x="807" y="564" width="100" height="30" as="geometry" />
        </mxCell>
        <mxCell id="YslABU1LW5GmAKorAFck-86" value="" style="rounded=0;whiteSpace=wrap;html=1;fillColor=#e1d5e7;strokeColor=#9673a6;" parent="1" vertex="1">
          <mxGeometry x="1012" y="498" width="50" height="160" as="geometry" />
        </mxCell>
        <mxCell id="YslABU1LW5GmAKorAFck-87" value="&lt;font style=&quot;font-size: 24px;&quot;&gt;ReLU&lt;/font&gt;" style="text;html=1;align=center;verticalAlign=middle;whiteSpace=wrap;rounded=0;rotation=-90;" parent="1" vertex="1">
          <mxGeometry x="987" y="563" width="100" height="30" as="geometry" />
        </mxCell>
        <mxCell id="YslABU1LW5GmAKorAFck-88" value="" style="rounded=0;whiteSpace=wrap;html=1;fillColor=#f8cecc;strokeColor=#b85450;" parent="1" vertex="1">
          <mxGeometry x="1073" y="498" width="50" height="160" as="geometry" />
        </mxCell>
        <mxCell id="YslABU1LW5GmAKorAFck-89" value="&lt;font style=&quot;font-size: 24px;&quot;&gt;BatchNorm1D&lt;/font&gt;" style="text;html=1;align=center;verticalAlign=middle;whiteSpace=wrap;rounded=0;rotation=-90;" parent="1" vertex="1">
          <mxGeometry x="1048" y="563" width="100" height="30" as="geometry" />
        </mxCell>
        <mxCell id="YslABU1LW5GmAKorAFck-90" value="" style="rounded=0;whiteSpace=wrap;html=1;fillColor=#d0cee2;strokeColor=#56517e;" parent="1" vertex="1">
          <mxGeometry x="1132" y="499" width="50" height="160" as="geometry" />
        </mxCell>
        <mxCell id="YslABU1LW5GmAKorAFck-91" value="&lt;font style=&quot;font-size: 24px;&quot;&gt;Dropout&lt;/font&gt;" style="text;html=1;align=center;verticalAlign=middle;whiteSpace=wrap;rounded=0;rotation=-90;" parent="1" vertex="1">
          <mxGeometry x="1107" y="559" width="100" height="30" as="geometry" />
        </mxCell>
        <mxCell id="YslABU1LW5GmAKorAFck-92" value="" style="shape=flexArrow;endArrow=classic;html=1;rounded=0;" parent="1" edge="1">
          <mxGeometry width="50" height="50" relative="1" as="geometry">
            <mxPoint x="1261" y="573.4100000000001" as="sourcePoint" />
            <mxPoint x="1311" y="573.4100000000001" as="targetPoint" />
          </mxGeometry>
        </mxCell>
        <mxCell id="H8p2pG_ltTTiy7wLjhzz-1" value="Input 5000" style="rounded=0;whiteSpace=wrap;html=1;" parent="1" vertex="1">
          <mxGeometry x="-250" y="505" width="260" height="21" as="geometry" />
        </mxCell>
        <mxCell id="H8p2pG_ltTTiy7wLjhzz-2" value="Input 5000" style="rounded=0;whiteSpace=wrap;html=1;" parent="1" vertex="1">
          <mxGeometry x="-250" y="530" width="260" height="21" as="geometry" />
        </mxCell>
        <mxCell id="H8p2pG_ltTTiy7wLjhzz-3" value="Input 5000" style="rounded=0;whiteSpace=wrap;html=1;" parent="1" vertex="1">
          <mxGeometry x="-250" y="555" width="260" height="21" as="geometry" />
        </mxCell>
        <mxCell id="H8p2pG_ltTTiy7wLjhzz-4" value="Input 5000" style="rounded=0;whiteSpace=wrap;html=1;" parent="1" vertex="1">
          <mxGeometry x="-250" y="580" width="260" height="21" as="geometry" />
        </mxCell>
        <mxCell id="H8p2pG_ltTTiy7wLjhzz-5" value="Input 5000" style="rounded=0;whiteSpace=wrap;html=1;" parent="1" vertex="1">
          <mxGeometry x="-250" y="605" width="260" height="21" as="geometry" />
        </mxCell>
        <mxCell id="H8p2pG_ltTTiy7wLjhzz-6" value="Input 5000" style="rounded=0;whiteSpace=wrap;html=1;" parent="1" vertex="1">
          <mxGeometry x="-250" y="630" width="260" height="21" as="geometry" />
        </mxCell>
        <mxCell id="H8p2pG_ltTTiy7wLjhzz-7" value="Input 5000" style="rounded=0;whiteSpace=wrap;html=1;" parent="1" vertex="1">
          <mxGeometry x="-250" y="655" width="260" height="21" as="geometry" />
        </mxCell>
        <mxCell id="H8p2pG_ltTTiy7wLjhzz-8" value="NORM" style="rounded=0;whiteSpace=wrap;html=1;" parent="1" vertex="1">
          <mxGeometry x="1321" y="481" width="170" height="33.5" as="geometry" />
        </mxCell>
        <mxCell id="H8p2pG_ltTTiy7wLjhzz-9" value="STTC" style="rounded=0;whiteSpace=wrap;html=1;" parent="1" vertex="1">
          <mxGeometry x="1321" y="519" width="170" height="33.5" as="geometry" />
        </mxCell>
        <mxCell id="H8p2pG_ltTTiy7wLjhzz-10" value="CD" style="rounded=0;whiteSpace=wrap;html=1;" parent="1" vertex="1">
          <mxGeometry x="1321" y="557.5" width="170" height="33.5" as="geometry" />
        </mxCell>
        <mxCell id="H8p2pG_ltTTiy7wLjhzz-11" value="HYP" style="rounded=0;whiteSpace=wrap;html=1;" parent="1" vertex="1">
          <mxGeometry x="1321" y="595.5" width="170" height="33.5" as="geometry" />
        </mxCell>
        <mxCell id="H8p2pG_ltTTiy7wLjhzz-12" value="MI" style="rounded=0;whiteSpace=wrap;html=1;" parent="1" vertex="1">
          <mxGeometry x="1321" y="633.5" width="170" height="33.5" as="geometry" />
        </mxCell>
        <mxCell id="H8p2pG_ltTTiy7wLjhzz-26" value="" style="rounded=0;whiteSpace=wrap;html=1;fillColor=#ffff88;strokeColor=#36393d;" parent="1" vertex="1">
          <mxGeometry x="40.5" y="860" width="50" height="160" as="geometry" />
        </mxCell>
        <mxCell id="H8p2pG_ltTTiy7wLjhzz-27" value="&lt;font style=&quot;font-size: 24px;&quot;&gt;1D Block&lt;/font&gt;" style="text;html=1;align=center;verticalAlign=middle;whiteSpace=wrap;rounded=0;rotation=-90;" parent="1" vertex="1">
          <mxGeometry x="8" y="925" width="115" height="30" as="geometry" />
        </mxCell>
        <mxCell id="H8p2pG_ltTTiy7wLjhzz-28" value="Input 5000" style="rounded=0;whiteSpace=wrap;html=1;" parent="1" vertex="1">
          <mxGeometry x="-300.5" y="841" width="260" height="21" as="geometry" />
        </mxCell>
        <mxCell id="H8p2pG_ltTTiy7wLjhzz-29" value="" style="shape=flexArrow;endArrow=classic;html=1;rounded=0;" parent="1" edge="1">
          <mxGeometry width="50" height="50" relative="1" as="geometry">
            <mxPoint x="-29.5" y="940" as="sourcePoint" />
            <mxPoint x="20.5" y="940" as="targetPoint" />
          </mxGeometry>
        </mxCell>
        <mxCell id="H8p2pG_ltTTiy7wLjhzz-30" value="" style="rounded=0;whiteSpace=wrap;html=1;fillColor=#ffff88;strokeColor=#36393d;" parent="1" vertex="1">
          <mxGeometry x="103" y="860" width="50" height="160" as="geometry" />
        </mxCell>
        <mxCell id="H8p2pG_ltTTiy7wLjhzz-31" value="&lt;font style=&quot;font-size: 24px;&quot;&gt;1D Block&lt;/font&gt;" style="text;html=1;align=center;verticalAlign=middle;whiteSpace=wrap;rounded=0;rotation=-90;" parent="1" vertex="1">
          <mxGeometry x="70.5" y="925" width="115" height="30" as="geometry" />
        </mxCell>
        <mxCell id="H8p2pG_ltTTiy7wLjhzz-32" value="" style="rounded=0;whiteSpace=wrap;html=1;fillColor=#ffff88;strokeColor=#36393d;" parent="1" vertex="1">
          <mxGeometry x="163" y="860" width="50" height="160" as="geometry" />
        </mxCell>
        <mxCell id="H8p2pG_ltTTiy7wLjhzz-33" value="&lt;font style=&quot;font-size: 24px;&quot;&gt;1D Block&lt;/font&gt;" style="text;html=1;align=center;verticalAlign=middle;whiteSpace=wrap;rounded=0;rotation=-90;" parent="1" vertex="1">
          <mxGeometry x="130.5" y="925" width="115" height="30" as="geometry" />
        </mxCell>
        <mxCell id="H8p2pG_ltTTiy7wLjhzz-34" value="" style="rounded=0;whiteSpace=wrap;html=1;fillColor=#ffff88;strokeColor=#36393d;" parent="1" vertex="1">
          <mxGeometry x="228" y="860" width="50" height="160" as="geometry" />
        </mxCell>
        <mxCell id="H8p2pG_ltTTiy7wLjhzz-35" value="&lt;font style=&quot;font-size: 24px;&quot;&gt;1D Block&lt;/font&gt;" style="text;html=1;align=center;verticalAlign=middle;whiteSpace=wrap;rounded=0;rotation=-90;" parent="1" vertex="1">
          <mxGeometry x="195.5" y="925" width="115" height="30" as="geometry" />
        </mxCell>
        <mxCell id="H8p2pG_ltTTiy7wLjhzz-36" value="" style="rounded=0;whiteSpace=wrap;html=1;fillColor=#ffff88;strokeColor=#36393d;" parent="1" vertex="1">
          <mxGeometry x="288" y="860" width="50" height="160" as="geometry" />
        </mxCell>
        <mxCell id="H8p2pG_ltTTiy7wLjhzz-37" value="&lt;font style=&quot;font-size: 24px;&quot;&gt;1D Block&lt;/font&gt;" style="text;html=1;align=center;verticalAlign=middle;whiteSpace=wrap;rounded=0;rotation=-90;" parent="1" vertex="1">
          <mxGeometry x="255.5" y="925" width="115" height="30" as="geometry" />
        </mxCell>
        <mxCell id="H8p2pG_ltTTiy7wLjhzz-38" value="" style="rounded=0;whiteSpace=wrap;html=1;fillColor=#ffff88;strokeColor=#36393d;" parent="1" vertex="1">
          <mxGeometry x="353" y="860" width="50" height="160" as="geometry" />
        </mxCell>
        <mxCell id="H8p2pG_ltTTiy7wLjhzz-39" value="&lt;font style=&quot;font-size: 24px;&quot;&gt;1D Block&lt;/font&gt;" style="text;html=1;align=center;verticalAlign=middle;whiteSpace=wrap;rounded=0;rotation=-90;" parent="1" vertex="1">
          <mxGeometry x="320.5" y="925" width="115" height="30" as="geometry" />
        </mxCell>
        <mxCell id="H8p2pG_ltTTiy7wLjhzz-40" value="" style="rounded=0;whiteSpace=wrap;html=1;fillColor=#dae8fc;strokeColor=#6c8ebf;" parent="1" vertex="1">
          <mxGeometry x="415.5" y="860" width="50" height="160" as="geometry" />
        </mxCell>
        <mxCell id="H8p2pG_ltTTiy7wLjhzz-41" value="&lt;font style=&quot;font-size: 24px;&quot;&gt;Conv1D&lt;/font&gt;" style="text;html=1;align=center;verticalAlign=middle;whiteSpace=wrap;rounded=0;rotation=-90;" parent="1" vertex="1">
          <mxGeometry x="410.5" y="925" width="60" height="30" as="geometry" />
        </mxCell>
        <mxCell id="H8p2pG_ltTTiy7wLjhzz-42" value="" style="rounded=0;whiteSpace=wrap;html=1;fillColor=#f8cecc;strokeColor=#b85450;" parent="1" vertex="1">
          <mxGeometry x="475.5" y="860" width="50" height="160" as="geometry" />
        </mxCell>
        <mxCell id="H8p2pG_ltTTiy7wLjhzz-43" value="&lt;font style=&quot;font-size: 24px;&quot;&gt;BatchNorm1D&lt;/font&gt;" style="text;html=1;align=center;verticalAlign=middle;whiteSpace=wrap;rounded=0;rotation=-90;" parent="1" vertex="1">
          <mxGeometry x="450.5" y="925" width="100" height="30" as="geometry" />
        </mxCell>
        <mxCell id="H8p2pG_ltTTiy7wLjhzz-44" value="" style="rounded=0;whiteSpace=wrap;html=1;fillColor=#dae8fc;strokeColor=#6c8ebf;" parent="1" vertex="1">
          <mxGeometry x="535.5" y="860" width="50" height="160" as="geometry" />
        </mxCell>
        <mxCell id="H8p2pG_ltTTiy7wLjhzz-45" value="&lt;font style=&quot;font-size: 24px;&quot;&gt;Conv1D&lt;/font&gt;" style="text;html=1;align=center;verticalAlign=middle;whiteSpace=wrap;rounded=0;rotation=-90;" parent="1" vertex="1">
          <mxGeometry x="530.5" y="925" width="60" height="30" as="geometry" />
        </mxCell>
        <mxCell id="H8p2pG_ltTTiy7wLjhzz-46" value="" style="rounded=0;whiteSpace=wrap;html=1;fillColor=#f8cecc;strokeColor=#b85450;" parent="1" vertex="1">
          <mxGeometry x="595.5" y="860" width="50" height="160" as="geometry" />
        </mxCell>
        <mxCell id="H8p2pG_ltTTiy7wLjhzz-47" value="&lt;font style=&quot;font-size: 24px;&quot;&gt;BatchNorm1D&lt;/font&gt;" style="text;html=1;align=center;verticalAlign=middle;whiteSpace=wrap;rounded=0;rotation=-90;" parent="1" vertex="1">
          <mxGeometry x="570.5" y="925" width="100" height="30" as="geometry" />
        </mxCell>
        <mxCell id="H8p2pG_ltTTiy7wLjhzz-48" value="" style="rounded=0;whiteSpace=wrap;html=1;fillColor=#fad7ac;strokeColor=#b46504;" parent="1" vertex="1">
          <mxGeometry x="660.5" y="860" width="50" height="160" as="geometry" />
        </mxCell>
        <mxCell id="H8p2pG_ltTTiy7wLjhzz-49" value="" style="rounded=0;whiteSpace=wrap;html=1;fillColor=#ffe6cc;strokeColor=#d79b00;" parent="1" vertex="1">
          <mxGeometry x="720.5" y="860" width="50" height="160" as="geometry" />
        </mxCell>
        <mxCell id="H8p2pG_ltTTiy7wLjhzz-50" value="" style="rounded=0;whiteSpace=wrap;html=1;fillColor=#d0cee2;strokeColor=#56517e;" parent="1" vertex="1">
          <mxGeometry x="840.5" y="860" width="50" height="160" as="geometry" />
        </mxCell>
        <mxCell id="H8p2pG_ltTTiy7wLjhzz-51" value="" style="rounded=0;whiteSpace=wrap;html=1;fillColor=#d5e8d4;strokeColor=#82b366;" parent="1" vertex="1">
          <mxGeometry x="900.5" y="860" width="50" height="160" as="geometry" />
        </mxCell>
        <mxCell id="H8p2pG_ltTTiy7wLjhzz-52" value="" style="rounded=0;whiteSpace=wrap;html=1;fillColor=#d5e8d4;strokeColor=#82b366;" parent="1" vertex="1">
          <mxGeometry x="1140.5" y="860" width="50" height="160" as="geometry" />
        </mxCell>
        <mxCell id="H8p2pG_ltTTiy7wLjhzz-53" value="&lt;font style=&quot;font-size: 14px;&quot;&gt;AdaptiveConcatPool1D&lt;/font&gt;" style="text;html=1;align=center;verticalAlign=middle;whiteSpace=wrap;rounded=0;rotation=-90;" parent="1" vertex="1">
          <mxGeometry x="635.5" y="925" width="100" height="30" as="geometry" />
        </mxCell>
        <mxCell id="H8p2pG_ltTTiy7wLjhzz-54" value="&lt;font style=&quot;font-size: 24px;&quot;&gt;Flatten&lt;/font&gt;" style="text;html=1;align=center;verticalAlign=middle;whiteSpace=wrap;rounded=0;rotation=-90;" parent="1" vertex="1">
          <mxGeometry x="695.5" y="925" width="100" height="30" as="geometry" />
        </mxCell>
        <mxCell id="H8p2pG_ltTTiy7wLjhzz-55" value="&lt;font style=&quot;font-size: 24px;&quot;&gt;Dropout&lt;/font&gt;" style="text;html=1;align=center;verticalAlign=middle;whiteSpace=wrap;rounded=0;rotation=-90;" parent="1" vertex="1">
          <mxGeometry x="815.5" y="920" width="100" height="30" as="geometry" />
        </mxCell>
        <mxCell id="H8p2pG_ltTTiy7wLjhzz-56" value="&lt;font style=&quot;font-size: 24px;&quot;&gt;Linear&lt;/font&gt;" style="text;html=1;align=center;verticalAlign=middle;whiteSpace=wrap;rounded=0;rotation=-90;" parent="1" vertex="1">
          <mxGeometry x="875.5" y="925" width="100" height="30" as="geometry" />
        </mxCell>
        <mxCell id="H8p2pG_ltTTiy7wLjhzz-57" value="&lt;font style=&quot;font-size: 24px;&quot;&gt;Linear&lt;/font&gt;" style="text;html=1;align=center;verticalAlign=middle;whiteSpace=wrap;rounded=0;rotation=-90;" parent="1" vertex="1">
          <mxGeometry x="1110.5" y="925" width="100" height="30" as="geometry" />
        </mxCell>
        <mxCell id="H8p2pG_ltTTiy7wLjhzz-58" value="" style="rounded=0;whiteSpace=wrap;html=1;fillColor=#f8cecc;strokeColor=#b85450;" parent="1" vertex="1">
          <mxGeometry x="781.5" y="860" width="50" height="160" as="geometry" />
        </mxCell>
        <mxCell id="H8p2pG_ltTTiy7wLjhzz-59" value="&lt;font style=&quot;font-size: 24px;&quot;&gt;BatchNorm1D&lt;/font&gt;" style="text;html=1;align=center;verticalAlign=middle;whiteSpace=wrap;rounded=0;rotation=-90;" parent="1" vertex="1">
          <mxGeometry x="756.5" y="925" width="100" height="30" as="geometry" />
        </mxCell>
        <mxCell id="H8p2pG_ltTTiy7wLjhzz-60" value="" style="rounded=0;whiteSpace=wrap;html=1;fillColor=#e1d5e7;strokeColor=#9673a6;" parent="1" vertex="1">
          <mxGeometry x="961.5" y="859" width="50" height="160" as="geometry" />
        </mxCell>
        <mxCell id="H8p2pG_ltTTiy7wLjhzz-61" value="&lt;font style=&quot;font-size: 24px;&quot;&gt;ReLU&lt;/font&gt;" style="text;html=1;align=center;verticalAlign=middle;whiteSpace=wrap;rounded=0;rotation=-90;" parent="1" vertex="1">
          <mxGeometry x="936.5" y="924" width="100" height="30" as="geometry" />
        </mxCell>
        <mxCell id="H8p2pG_ltTTiy7wLjhzz-62" value="" style="rounded=0;whiteSpace=wrap;html=1;fillColor=#f8cecc;strokeColor=#b85450;" parent="1" vertex="1">
          <mxGeometry x="1022.5" y="859" width="50" height="160" as="geometry" />
        </mxCell>
        <mxCell id="H8p2pG_ltTTiy7wLjhzz-63" value="&lt;font style=&quot;font-size: 24px;&quot;&gt;BatchNorm1D&lt;/font&gt;" style="text;html=1;align=center;verticalAlign=middle;whiteSpace=wrap;rounded=0;rotation=-90;" parent="1" vertex="1">
          <mxGeometry x="997.5" y="924" width="100" height="30" as="geometry" />
        </mxCell>
        <mxCell id="H8p2pG_ltTTiy7wLjhzz-64" value="" style="rounded=0;whiteSpace=wrap;html=1;fillColor=#d0cee2;strokeColor=#56517e;" parent="1" vertex="1">
          <mxGeometry x="1081.5" y="860" width="50" height="160" as="geometry" />
        </mxCell>
        <mxCell id="H8p2pG_ltTTiy7wLjhzz-65" value="&lt;font style=&quot;font-size: 24px;&quot;&gt;Dropout&lt;/font&gt;" style="text;html=1;align=center;verticalAlign=middle;whiteSpace=wrap;rounded=0;rotation=-90;" parent="1" vertex="1">
          <mxGeometry x="1056.5" y="920" width="100" height="30" as="geometry" />
        </mxCell>
        <mxCell id="H8p2pG_ltTTiy7wLjhzz-66" value="" style="shape=flexArrow;endArrow=classic;html=1;rounded=0;" parent="1" edge="1">
          <mxGeometry width="50" height="50" relative="1" as="geometry">
            <mxPoint x="1210.5" y="934.4100000000001" as="sourcePoint" />
            <mxPoint x="1260.5" y="934.4100000000001" as="targetPoint" />
          </mxGeometry>
        </mxCell>
        <mxCell id="H8p2pG_ltTTiy7wLjhzz-67" value="Input 5000" style="rounded=0;whiteSpace=wrap;html=1;" parent="1" vertex="1">
          <mxGeometry x="-300.5" y="866" width="260" height="21" as="geometry" />
        </mxCell>
        <mxCell id="H8p2pG_ltTTiy7wLjhzz-68" value="Input 5000" style="rounded=0;whiteSpace=wrap;html=1;" parent="1" vertex="1">
          <mxGeometry x="-300.5" y="891" width="260" height="21" as="geometry" />
        </mxCell>
        <mxCell id="H8p2pG_ltTTiy7wLjhzz-69" value="Input 5000" style="rounded=0;whiteSpace=wrap;html=1;" parent="1" vertex="1">
          <mxGeometry x="-300.5" y="916" width="260" height="21" as="geometry" />
        </mxCell>
        <mxCell id="H8p2pG_ltTTiy7wLjhzz-70" value="Input 5000" style="rounded=0;whiteSpace=wrap;html=1;" parent="1" vertex="1">
          <mxGeometry x="-300.5" y="941" width="260" height="21" as="geometry" />
        </mxCell>
        <mxCell id="H8p2pG_ltTTiy7wLjhzz-71" value="Input 5000" style="rounded=0;whiteSpace=wrap;html=1;" parent="1" vertex="1">
          <mxGeometry x="-300.5" y="966" width="260" height="21" as="geometry" />
        </mxCell>
        <mxCell id="H8p2pG_ltTTiy7wLjhzz-72" value="Input 5000" style="rounded=0;whiteSpace=wrap;html=1;" parent="1" vertex="1">
          <mxGeometry x="-300.5" y="991" width="260" height="21" as="geometry" />
        </mxCell>
        <mxCell id="H8p2pG_ltTTiy7wLjhzz-73" value="Input 5000" style="rounded=0;whiteSpace=wrap;html=1;" parent="1" vertex="1">
          <mxGeometry x="-300.5" y="1016" width="260" height="21" as="geometry" />
        </mxCell>
        <mxCell id="H8p2pG_ltTTiy7wLjhzz-75" value="HR" style="rounded=0;whiteSpace=wrap;html=1;" parent="1" vertex="1">
          <mxGeometry x="1265" y="837" width="170" height="33.5" as="geometry" />
        </mxCell>
        <mxCell id="H8p2pG_ltTTiy7wLjhzz-76" value="QRS" style="rounded=0;whiteSpace=wrap;html=1;" parent="1" vertex="1">
          <mxGeometry x="1265" y="891" width="170" height="33.5" as="geometry" />
        </mxCell>
        <mxCell id="H8p2pG_ltTTiy7wLjhzz-77" value="PR" style="rounded=0;whiteSpace=wrap;html=1;" parent="1" vertex="1">
          <mxGeometry x="1265" y="945" width="170" height="33.5" as="geometry" />
        </mxCell>
        <mxCell id="H8p2pG_ltTTiy7wLjhzz-78" value="QT" style="rounded=0;whiteSpace=wrap;html=1;" parent="1" vertex="1">
          <mxGeometry x="1265" y="994" width="170" height="33.5" as="geometry" />
        </mxCell>
        <mxCell id="H8p2pG_ltTTiy7wLjhzz-83" value="or" style="text;html=1;align=center;verticalAlign=middle;whiteSpace=wrap;rounded=0;" parent="1" vertex="1">
          <mxGeometry x="1316" y="865" width="60" height="30" as="geometry" />
        </mxCell>
        <mxCell id="H8p2pG_ltTTiy7wLjhzz-84" value="or" style="text;html=1;align=center;verticalAlign=middle;whiteSpace=wrap;rounded=0;" parent="1" vertex="1">
          <mxGeometry x="1318" y="920" width="60" height="30" as="geometry" />
        </mxCell>
        <mxCell id="H8p2pG_ltTTiy7wLjhzz-85" value="or" style="text;html=1;align=center;verticalAlign=middle;whiteSpace=wrap;rounded=0;" parent="1" vertex="1">
          <mxGeometry x="1317" y="971" width="60" height="30" as="geometry" />
        </mxCell>
      </root>
    </mxGraphModel>
  </diagram>
</mxfile>
